<?xml version="1.0" encoding="utf-8"?>
<!-- Generator: Adobe Illustrator 21.0.1, SVG Export Plug-In . SVG Version: 6.00 Build 0)  -->
<svg version="1.1" id="Layer_1" xmlns="http://www.w3.org/2000/svg" xmlns:xlink="http://www.w3.org/1999/xlink" x="0px" y="0px"
	 width="128px" height="128px" viewBox="0 0 128 128" style="enable-background:new 0 0 128 128;" xml:space="preserve">
<style type="text/css">
	.st0{fill:#D6001C;}
	.st1{fill:#FFFFFF;}
</style>
<path class="st0" d="M64,128c35.3,0,64-28.7,64-64S99.3,0,64,0S0,28.7,0,64S28.7,128,64,128"/>
<path class="st1" d="M36.4,35.1v21.8c3.3-3.9,7.3-5.9,11.9-5.9c2.4,0,4.5,0.5,6.4,1.4c1.9,0.9,3.3,2,4.3,3.4c1,1.4,1.6,2.9,2,4.6
	c0.4,1.7,0.5,4.3,0.5,7.9v23.3H51.2v-21c0-4.2-0.2-6.8-0.6-7.9c-0.4-1.1-1.1-2-2.1-2.7c-1-0.7-2.2-1-3.7-1c-1.7,0-3.2,0.4-4.6,1.3
	c-1.4,0.9-2.3,2.1-3,3.8c-0.6,1.7-0.9,4.2-0.9,7.6l0,19.9H26.1V35.1H36.4z"/>
<path class="st1" d="M77,35.1v21.8c3.3-3.9,7.3-5.9,11.9-5.9c2.4,0,4.5,0.5,6.4,1.4c1.9,0.9,3.3,2,4.3,3.4c1,1.4,1.6,2.9,2,4.6
	c0.4,1.7,0.5,4.3,0.5,7.9v23.3H91.8v-21c0-4.2-0.2-6.8-0.6-7.9c-0.4-1.1-1.1-2-2.1-2.7c-1-0.7-2.2-1-3.7-1c-1.7,0-3.2,0.4-4.6,1.3
	c-1.3,0.9-2.3,2.1-3,3.8c-0.6,1.7-0.9,4.2-0.9,7.6v19.9H66.7V35.1H77z"/>
</svg>
