<svg id="Слой_1" data-name="Слой 1" xmlns="http://www.w3.org/2000/svg" viewBox="0 0 107 99"><defs><style>.cls-1{fill:#f8bc00;}.cls-1,.cls-10,.cls-11,.cls-12,.cls-13,.cls-14,.cls-2,.cls-3,.cls-4,.cls-5,.cls-6,.cls-7,.cls-8,.cls-9{fill-rule:evenodd;}.cls-2{fill:#f6d981;}.cls-3{fill:#ec892e;}.cls-4{fill:#c6c6c5;}.cls-5{fill:#c95c20;}.cls-6{fill:#aec71b;}.cls-7{fill:#cfd9df;}.cls-8{fill:#b3c8dd;}.cls-9{fill:#a0d9f7;}.cls-10{fill:#2fbae3;}.cls-11{fill:#e4a729;}.cls-12{fill:#c57c1f;}.cls-13{fill:#83b327;}.cls-14{fill:#fff;}</style></defs><path class="cls-1" d="M44.57,44.82a4.76,4.76,0,0,1,5-4,4.5,4.5,0,0,1,4,5,4,4,0,0,1-4,3.8C45.49,49.52,44.28,47,44.57,44.82Z"/><path class="cls-2" d="M51.34,63.58c6.22-.38,10.12,4.58,4.8,8.3-5.92,4-17,5.25-22.65,1.12a4.62,4.62,0,0,1-.68-7.06,2.71,2.71,0,0,1,3.55-.37c1.75,3.87,7,5.48,11.5,5.09C54.83,70.06,55.14,64.93,51.34,63.58Z"/><path class="cls-3" d="M102.21,56.87V43.93a21.53,21.53,0,0,1,2.16,3.92c1.4,3.43,1,6.77-2.16,9Zm0-15.91A26.74,26.74,0,0,1,104.8,45c.92,1.83,2,.72,1.91-.77.07-5.89-1.46-12.31-4.5-16.22ZM61.32,3.4c1.41.92,2.91,2.54,2.28,3.6a2,2,0,0,1-2.28.9V3.4ZM102.21,28V41a35.77,35.77,0,0,0-6.53-6.54l-.31-.28a12.63,12.63,0,0,0-5.92-2.73c-4.44-.84-8.43.75-7.64-4.73.77-5.3,13.33-4.78,18.61-.5A11.32,11.32,0,0,1,102.21,28Zm0,15.89c-.33-.49-.68-1-1-1.45-1.46-1.9-2.17-1-1.77,1.06l0-.08c.17.78.32,1.57.44,2.37A33.05,33.05,0,0,1,100,54c-.26,2.38-.37,4.65,2.19,2.85l0,0V43.93ZM61.32,19.87V9.68a2.7,2.7,0,0,0,.91.07c2-.13,2.53.25,3,2.55.69,3.58-1.09,6.1-3.88,7.57Zm13,57.86a24.55,24.55,0,0,1-4,15.13c-1.58,2.47-1.29,4.06.36,3.46,5.81-2.09,9.53-6.15,10.17-12.11.33-3.14-.07-6.53-2.41-8.83a3.27,3.27,0,0,0-2.72-1.17C74.52,74.42,74.1,75.22,74.28,77.73ZM59.37,2.81c.25-.28,1.08,0,2,.59V7.9a2.43,2.43,0,0,1-1.19-.81C59,5.74,58.47,3.77,59.37,2.81Zm2,6.87c-3.21-.83-2.67-7.63-4.65-8.51a4.89,4.89,0,0,0-4.29,0c-2,.89-1.45,7.68-4.65,8.51V19.87a15.85,15.85,0,0,0,13.59,0V9.68ZM47.73,7.9V3.4c.87-.57,1.7-.87,2-.59.9,1,.37,2.93-.76,4.28A2.49,2.49,0,0,1,47.73,7.9Zm0-4.5V7.9A2,2,0,0,1,45.45,7c-.63-1.06.88-2.68,2.28-3.6Zm0,6.28V19.87c-2.79-1.47-4.57-4-3.88-7.57.44-2.3,1-2.68,3-2.55a2.62,2.62,0,0,0,.9-.07ZM4.81,56.87V43.93c.34-.49.69-1,1.05-1.45,1.46-1.9,2.18-1,1.78,1.06l.05-.08c-.18.78-.33,1.57-.44,2.37A33.07,33.07,0,0,0,7,54c.27,2.38.37,4.65-2.19,2.85l0,0ZM4.81,41a36.13,36.13,0,0,1,6.54-6.54l.31-.28a12.56,12.56,0,0,1,5.91-2.73c4.45-.84,8.43.75,7.64-4.73-.77-5.3-13.32-4.78-18.6-.5A11.37,11.37,0,0,0,4.81,28V41ZM32.57,77.73a24.42,24.42,0,0,0,4,15.13c1.58,2.47,1.29,4.06-.36,3.46C30.38,94.23,26.66,90.17,26,84.21c-.33-3.14.07-6.53,2.41-8.83a3.27,3.27,0,0,1,2.72-1.17C32.32,74.42,32.74,75.22,32.57,77.73ZM4.81,28V41A26.66,26.66,0,0,0,2.23,45c-.93,1.83-2,.72-1.92-.77C.24,38.37,1.78,32,4.81,28Zm0,15.89a21.53,21.53,0,0,0-2.16,3.92c-1.4,3.43-1,6.77,2.16,9Z"/><path class="cls-4" d="M61.2,47.52C60.93,46.15,60,45.43,59,45.63v4.81c1.23-.63,2.45-1.91,2.25-2.92ZM59,55.88V52.57a3.75,3.75,0,0,1,.93.07,5.62,5.62,0,0,1,2.45,1.6c1,1.09.94,1.84-.22,1.76S59.94,55.88,59,55.88Zm0-10.25a2.22,2.22,0,0,0-.58.2c-1,.5-2.14,4-1.5,4.71.41.45,1.25.32,2.08-.1V45.63Zm0,6.94v3.31a44.08,44.08,0,0,0-10.52,1.26c-2.75.57.17-5.2,2.1-6.2s2.75.5,5,1.94c.87.54,2-.23,3.37-.31Zm-22.8,9.19v1.5c0,1-.79,1.14-2.79.39L31.52,63c-1.76-.66-2.08-1.28-2.08-2.24v-2.4c0-1.38.3-1.38,2.28-.77l3,.93a9.21,9.21,0,0,0,4.69.14l3.37-.94c1.95-.55,2.46-.62,2.46.76v2.7c0,1-.34,1.5-2.08,2.09L40.94,64c-2,.65-2.79.44-2.79-.61V61.76C38.1,61.15,36.1,61,36.15,61.76Z"/><path class="cls-5" d="M39.26,79c3,4.31,4.08,8.4,4.61,15.24.05.67.17,2.14-.53,2.49-1.72.86-5-3.85-6.05-5.66-2.24-3.8-3.61-7.46-3.41-11.71.18-3.74,3.83-2.59,5.38-.36Zm28.32,0c-3,4.31-4.07,8.4-4.6,15.24,0,.67-.18,2.14.52,2.49,1.72.86,5-3.85,6-5.66,2.25-3.8,3.62-7.46,3.42-11.71-.18-3.74-3.84-2.59-5.39-.36ZM96.17,53.46c-2.66-8-8.09-9.75-11.08-16.33-1.25-2.74-1.46-4.48,1.74-4.56a10.74,10.74,0,0,1,2.36.26,11.21,11.21,0,0,1,5.24,2.41c3.47,3.09,4.5,11.75,4.15,17.13,0,1.53-1.55,3.67-2.41,1.09ZM62.32,19.26c-4.12,2.85-11.47,2.85-15.59,0,3-.08,4.47-2.12,5.32-5.54.91-3.66,3.85-3.66,4.76,0,.86,3.49,2.39,5.54,5.51,5.54ZM10.86,53.46c2.66-8,7.42-9.3,10.41-15.89,1.25-2.73,2.12-4.92-1.08-5a10.64,10.64,0,0,0-2.35.26,11.2,11.2,0,0,0-5.25,2.41C9.12,38.33,8.09,47,8.45,52.37,8.49,53.9,10,56,10.86,53.46Z"/><path class="cls-6" d="M37.91,38.41a47.85,47.85,0,0,1,7.38-5.36,13.79,13.79,0,0,1,7.48,4.59h0A31.63,31.63,0,0,0,48,39.06l-2.86-2,1.59,2.27c-.59.23-2.76,1.09-3.35,1.34l-.84-2.35V41l-1.32.76-1.28-2,.55,2.46-2.55,1.45V38.41Zm0,9.23V45.41a19,19,0,0,1,2.53-1,5.85,5.85,0,0,1,2.91,3.1h0a15.19,15.19,0,0,0-2.14-.11l-1-1.41.23,1.41c-.68,0-1.54.1-2.48.22Zm.56,17.81a15.48,15.48,0,0,0,4.82-.75c2.88-.88,5.86-1.11,7.43-.3,3.46,1.77,1.27,5.36-3,5.54C43.74,70.1,39.16,68.62,38.47,65.45ZM29.28,49.9l0-.11a32.55,32.55,0,0,1,8.65-11.38v5.25l-3,1.7-1.08-2L34,46.17C32.78,47,30.43,49,29.28,49.9Zm8.63-4.49a21.11,21.11,0,0,0-5.44,3.53,22.41,22.41,0,0,1,5.44-1.3Z"/><path class="cls-7" d="M78.55,49.27c-1.38-.19-2.59.85-3.65,2.38-.67,1-.77.9-1.83.52-1.39-.51-2.4-1.22-4-.45-.68.34-1.25.25-.33-.67a3.48,3.48,0,0,1,4-.89c1.07.44.66.36,1.45-.49a3.64,3.64,0,0,1,4-1.17C79.24,48.88,79.25,49.37,78.55,49.27Z"/><path class="cls-8" d="M72.26,54.22c-1.09-.53-2.39,0-3.68,1-.83.64-1,.61-1.67-.06s-1.32-1.43-2.52-1.36c-.67,0-1.06,0-.1-.65a2.29,2.29,0,0,1,2.93.26c.77.65.51.41,1.4-.08a3.06,3.06,0,0,1,3.64.12C73,54.13,72.82,54.49,72.26,54.22Z"/><path class="cls-1" d="M80.4,29.58a11,11,0,0,0-7.83-1.27,17.68,17.68,0,0,1,7.83,2.43,5.25,5.25,0,0,1,2,7.11A23.15,23.15,0,0,0,72.77,29c5.42,4.37,8.82,8.74,9.26,12.63.41,3.59-3,5.95-7.06,5.1,2.26-4.52,1.67-10.33-2.9-17.07l-.18-.22c1.87,7.06,3.46,13.29-.08,17.55-1.81,2.18-7.61.85-9.1-1.34A32.91,32.91,0,0,0,71,29.59l0,0h0a25.69,25.69,0,0,0-11,14.27c-3.08.4-7-4.52-5.49-7.85C57,31,62.64,29.09,70.69,28.71l-.28-.07c-8-1.31-14.57-.38-17.72,3.57a5.26,5.26,0,0,1,1.92-6.85c2.94-1.63,9-1.18,16.1,2.32-2.35-2.2-6.68-3.84-11.08-4.55a4.68,4.68,0,0,1,5.28-1.62,11.36,11.36,0,0,1,6.64,6.16c-.12-2.2-1.74-4.37-4-6.34,4.92-2,6.33,2.61,4.63,6.34C75.11,24.82,80.47,24.05,80.4,29.58Z"/><path class="cls-9" d="M52.33,57.41c-2.12.31-4.54,1.13-5.46,2.35S46.5,62.08,48,62.18c3.31.1,9.21,0,12.06,2.56,1.42,1.28,1.8,3.22-.36,5.71-1.73,2-6.29,4.47-10.89,5.76-1,.35-3.88,1.31.4,2.05a33.64,33.64,0,0,0,9.15,0,28.61,28.61,0,0,0,12.66-5.13c8.11-6.61,2.84-15.27-7.54-16.09A58.78,58.78,0,0,0,52.33,57.41Z"/><path class="cls-10" d="M60.15,56.93c5,.52,8.44,3.07,9,7.12.95,6.82-8.29,13.51-19.53,14.26a33.07,33.07,0,0,0,8.77,0,28.61,28.61,0,0,0,12.66-5.13c8.11-6.61,2.84-15.27-7.54-16.09C62.48,57,61.33,56.94,60.15,56.93Z"/><path class="cls-11" d="M37.35,48.47a5.84,5.84,0,0,1,2.24.59,31.56,31.56,0,0,1,6.63,4.18,1.66,1.66,0,0,1,.67,1v.23c-.25,1.85-6.48,3-7.6,3.22a8.57,8.57,0,0,1-1.94.26V48.47Zm-9.53,6v-.21a1.58,1.58,0,0,1,.66-1,31.13,31.13,0,0,1,6.63-4.17,5.77,5.77,0,0,1,2.24-.6v9.46a8.64,8.64,0,0,1-1.94-.26C34.29,57.43,28,56.3,27.82,54.44Z"/><path class="cls-12" d="M37.35,48.47a5.77,5.77,0,0,0-2.24.6,31.13,31.13,0,0,0-6.63,4.17c-3.13,2.58,5.59,4.14,6.93,4.43C40.09,58.68,33.44,51.69,37.35,48.47Z"/><path class="cls-2" d="M72.88,56.32a9.64,9.64,0,0,0,2.31-.57,8.73,8.73,0,0,0,3.58-2.67,46.68,46.68,0,0,0,3-4.65c2.11-3,5.74-4.1,5.54-.72a33.81,33.81,0,0,1-2.09,9.84c-1.52,4.12-3.94,7.53-6.44,11.06-.75,1-2.65.18-2.6-2.34.08-3.88-1.77-5.87-4.92-7.9C69.86,57.48,71.08,56.56,72.88,56.32Z"/><path class="cls-13" d="M79.5,67.58l-.12.14c-1.25.17-1.55-2.62-.33-4.35,2.1-3,1.46-4.24.1-3.6-5,2.37-6.94-2.92-4.8-3.74a8.27,8.27,0,0,0,.84-.28,8.73,8.73,0,0,0,3.58-2.67,46.68,46.68,0,0,0,3-4.65c2.11-3,5.74-4.1,5.54-.72a33.81,33.81,0,0,1-2.09,9.84,43.59,43.59,0,0,1-5.71,10ZM22.55,47.5c-.6-5.63.07-11.35,2.64-15.82,5.06-8.8,17.3-14.48,27.55-7.71-1.55,1.06-3.24,3-5,4.17l-2.49-1.28,1.37,2.05c-.75.53-1.47,1.06-2.14,1.58a8,8,0,0,0-7-2.23c1.94.44,4.52,2.33,5.07,3.63-.71.46-1.41.94-2.09,1.43L37.74,31.2,39.59,34A20.18,20.18,0,0,0,36,37.31a10.51,10.51,0,0,0-4.91-2.24,12.91,12.91,0,0,1,3.67,3.84c-1.14,1.47-2.24,2.94-3.22,4.43a12.42,12.42,0,0,1-2.89-2.48,17.25,17.25,0,0,0,2,3.85c-.55.91-1.68,3-2.11,3.94a31.27,31.27,0,0,1-3-4.65,21.65,21.65,0,0,0,2.26,7.3,9.5,9.5,0,0,1-1,1.66,3.51,3.51,0,0,0-.45,3.55,20.81,20.81,0,0,0,5.27,8.81c.35,1.09-1.59,1.54-2.13,1.23-.58-.91-1.34-2.26-2.12-3.76A42.28,42.28,0,0,1,22.55,47.5Z"/><path class="cls-6" d="M75.82,55.48c.13-.06.25-.13.37-.2a9,9,0,0,0,2.58-2.2,46.68,46.68,0,0,0,3-4.65c2.11-3,5.74-4.1,5.54-.72a33.81,33.81,0,0,1-2.09,9.84,28.4,28.4,0,0,1-1.59,3.55c-.94.85-1.81.14-1.24-1.23,1.07-2.59,1.11-5.66-1.49-3.21-4.07,3.84-7-.19-5.19-1.13l.08,0Z"/><path class="cls-14" d="M68,61.56a23.7,23.7,0,0,1-2,6.53c-.27.59-.47.94.44,1.07,1.77.26,4-.34,4.06-.77a12.52,12.52,0,0,0-.62-4,7,7,0,0,0-1.39-2.73A.37.37,0,0,0,68,61.56Z"/></svg>