<svg width="81" height="28" viewBox="0 0 81 28" fill="none" xmlns="http://www.w3.org/2000/svg">
<path d="M38.0522 26.0942V7.84293H40.2765L40.8697 9.96858C41.7594 8.86911 43.4646 7.62305 45.9114 7.62305C49.6926 7.62305 52.3618 10.4817 52.3618 14.4398C52.3618 18.3979 49.6926 21.2565 45.9114 21.2565C43.6129 21.2565 41.9077 20.0838 41.018 18.9843V26.1675H38.0522V26.0942ZM49.2478 14.3665C49.2478 11.8743 47.5425 10.1885 45.0958 10.1885C42.6491 10.1885 40.9438 11.9476 40.9438 14.3665C40.9438 16.8586 42.6491 18.5445 45.0958 18.5445C47.6167 18.6178 49.2478 16.8586 49.2478 14.3665Z" fill="#2787F5"/>
<path d="M65.5592 13.5603V20.8901H63.4091L62.8159 18.8378C62.1486 19.9372 60.7399 21.1833 58.5898 21.1833C55.9206 21.1833 53.993 19.4241 53.993 17.0053C53.993 14.5864 55.9207 12.9006 59.8502 12.9006H62.7418C62.5935 11.2147 61.7038 10.0419 60.0726 10.0419C58.7381 10.0419 57.8484 10.7749 57.4035 11.5812L54.7344 11.1414C55.4017 8.86917 57.7001 7.5498 60.2209 7.5498C63.4832 7.6231 65.5592 9.74874 65.5592 13.5603ZM62.5935 15.1728H59.8502C57.6259 15.1728 56.8845 15.9058 56.8845 16.8587C56.8845 17.9582 57.7742 18.6912 59.2571 18.6912C61.2589 18.7644 62.5935 17.2985 62.5935 15.1728Z" fill="#2787F5"/>
<path d="M77.2738 7.84302H80.2395L74.8271 22.576C73.9374 24.9949 72.6028 26.0943 70.1561 26.0943H68.1542L67.9318 23.4556H70.3785C71.3424 23.4556 71.7873 23.0891 72.158 22.0629L72.3062 21.6964L66.449 7.91632H69.563L73.4925 17.3718H73.8633L77.2738 7.84302Z" fill="#2787F5"/>
<path fill-rule="evenodd" clip-rule="evenodd" d="M14.7544 0C21.1307 0 24.3188 8.91261e-06 26.3207 1.97907C28.3225 3.88481 28.3225 7.10992 28.3225 13.4135V13.4136V14.5864V14.5865C28.3225 20.8901 28.3225 24.0419 26.3207 26.0209C24.393 28 21.1307 28 14.7544 28H13.5681C7.19184 28 4.00369 28 2.00184 26.0209C0 24.1152 0 20.8901 0 14.5865V14.5864V13.4136V13.4135C0 7.10992 0 3.95811 2.00184 1.97907C3.92955 8.91261e-06 7.19184 0 13.5681 0H14.7544ZM20.9082 19.8639H22.9842C23.5774 19.8639 23.874 19.5707 23.5774 18.9843C23.355 18.398 22.6877 17.5184 21.798 16.5655C21.5374 16.222 21.175 15.8785 20.8748 15.5939C20.6626 15.3927 20.4814 15.221 20.3893 15.0995C20.0927 14.733 20.1668 14.5864 20.3893 14.22C20.3893 14.22 22.9101 10.7016 23.2067 9.52884C23.355 9.08905 23.2067 8.79585 22.6135 8.79585H20.5375C20.0185 8.79585 19.7961 9.08906 19.6478 9.38225C19.6478 9.38225 18.6098 11.9477 17.127 13.5602L17.1268 13.5604C16.6079 14.0734 16.4597 14.22 16.1631 14.22C16.089 14.22 15.8665 14.0733 15.8665 13.6336V9.60214C15.8665 9.08905 15.7182 8.86916 15.2734 8.86916H12.0111C11.7145 8.86916 11.4921 9.08906 11.4921 9.30895C11.4921 9.50675 11.6023 9.6392 11.742 9.80707C11.9646 10.0746 12.2621 10.4322 12.3077 11.288V14.2932C12.3077 14.9529 12.2335 15.0995 11.937 15.0995C11.2697 15.0995 9.56441 12.6074 8.52641 9.67544C8.37813 9.08906 8.15569 8.86916 7.63669 8.86916H5.5607C4.96756 8.86916 4.81928 9.16236 4.81928 9.45556C4.81928 9.96865 5.48656 12.6807 8.08155 16.199C9.78683 18.6178 12.1594 19.9372 14.3837 19.9372C15.7183 19.9372 15.8665 19.644 15.8665 19.1309V17.2985C15.8665 16.7121 15.9407 16.5655 16.3855 16.5655C16.6821 16.5655 17.2011 16.7121 18.4615 17.8849C18.8571 18.2759 19.1591 18.6033 19.4069 18.8721C20.0419 19.5606 20.3217 19.8639 20.9082 19.8639Z" fill="#2787F5"/>
</svg>